<svg width="150" height="35" viewBox="0 0 150 35" fill="none" xmlns="http://www.w3.org/2000/svg">
<path d="M17.15 0C7.67748 0 0 7.67746 0 17.15C0 26.0201 6.73548 33.3175 15.3711 34.207C14.8496 29.9134 15.0436 26.4001 15.7067 23.5135C15.3347 21.7225 14.4898 19.0703 12.5734 17.1864C12.5734 17.1864 13.8348 19.0784 14.5181 21.6214C14.5181 21.6255 14.5221 21.6295 14.5221 21.6335C14.5949 21.9044 14.6596 22.1793 14.7162 22.4623C14.7283 22.527 14.7404 22.5917 14.7526 22.6604C14.8051 22.9515 14.8536 23.2426 14.886 23.5418C5.19513 22.3532 3.12921 13.6569 3.35561 10.3781C13.665 10.9482 15.7754 17.8292 16.0827 22.0985C19.4585 11.0412 30.1843 10.4024 31.0697 10.3781C31.4538 18.8763 25.1509 25.5026 17.6149 26.0807C17.6635 25.8503 17.7201 25.6198 17.7767 25.3934C17.7928 25.3247 17.813 25.26 17.8333 25.1913C17.8777 25.0296 17.9222 24.8679 17.9748 24.7061C17.995 24.6374 18.0192 24.5646 18.0394 24.4959C18.096 24.318 18.1567 24.1442 18.2173 23.9663C18.2335 23.9259 18.2456 23.8854 18.2618 23.845C18.3386 23.6348 18.4195 23.4326 18.5003 23.2305C18.5084 23.2143 18.5125 23.1941 18.5205 23.1779C18.5205 23.1779 18.5205 23.1779 18.5246 23.1779C20.4571 18.5043 24.0229 15.4439 24.0229 15.4439C17.0247 19.4868 15.8441 29.9983 15.6582 34.2231C16.1514 34.2676 16.6446 34.2999 17.15 34.2999C26.6225 34.2999 34.3 26.6225 34.3 17.15C34.3 7.67746 26.6225 0 17.15 0Z" fill="#46A358"/>
<path d="M46.7038 10.7459C48.9719 10.7459 50.8235 11.7203 52.0243 13.4991L49.7764 15.4114C48.9719 14.2875 47.9975 13.7053 46.6472 13.7053C44.5691 13.7053 43.2754 15.0718 43.2754 17.1539C43.2754 19.2724 44.6419 20.6955 46.8372 20.6955C48.0177 20.6955 48.9557 20.2831 49.5541 19.5918V19.0096H46.6674V16.2362H52.7763V20.1335C52.1941 21.1645 51.3693 21.9892 50.302 22.624C49.2347 23.2425 48.0339 23.5619 46.7038 23.5619C42.9924 23.6185 39.9238 20.7319 39.9764 17.1539C39.9198 13.5962 42.9924 10.6893 46.7038 10.7459Z" fill="#46A358"/>
<path d="M61.9577 23.332L59.1681 19.4912H57.8379V23.332H54.6157V10.9688H59.4672C62.2204 10.9688 64.246 12.6546 64.246 15.2219C64.246 16.738 63.5142 17.9953 62.2973 18.7433L65.5559 23.332H61.9577ZM57.8339 16.6814H59.4834C60.3809 16.6814 60.9631 16.0992 60.9631 15.2219C60.9631 14.3446 60.3809 13.7786 59.4834 13.7786H57.8339V16.6814Z" fill="#46A358"/>
<path d="M66.8334 10.9688H75.4125V13.8716H70.0556V15.5777H73.8762V18.2743H70.0556V20.4292H75.6389V23.332H66.8334V10.9688Z" fill="#46A358"/>
<path d="M77.644 10.9688H86.223V13.8716H80.8662V15.5777H84.6867V18.2743H80.8662V20.4292H86.4494V23.332H77.644V10.9688Z" fill="#46A358"/>
<path d="M99.4194 10.9686V23.5582H98.3884L91.6812 17.0572V23.3318H88.459V10.7422H89.4899L96.1971 17.1502V10.9686H99.4194Z" fill="#46A358"/>
<path d="M103.264 19.1354C103.996 20.1097 104.764 20.7283 106.017 20.7283C106.862 20.7283 107.291 20.4291 107.291 19.8267C107.291 19.285 107.008 19.1152 106.033 18.6826L104.76 18.1206C102.718 17.2191 101.631 16.0587 101.631 14.3931C101.631 12.2018 103.43 10.7383 105.957 10.7383C107.998 10.7383 109.442 11.7126 110.19 13.2287L108.035 14.8782C107.436 13.9807 106.874 13.5683 105.993 13.5683C105.318 13.5683 104.889 13.8311 104.889 14.3567C104.889 14.8054 105.152 15.0521 105.957 15.3674L107.38 15.9658C109.535 16.8673 110.545 17.9508 110.545 19.6933C110.545 22.0907 108.576 23.5543 106.009 23.5543C103.782 23.5543 101.982 22.487 101.081 20.7808L103.264 19.1354Z" fill="#46A358"/>
<path d="M112.393 10.9688H115.615V15.4847H120.131V10.9688H123.353V23.332H120.131V18.3875H115.615V23.332H112.393V10.9688Z" fill="#46A358"/>
<path d="M131.843 10.7417C135.442 10.6649 138.607 13.6081 138.53 17.1497C138.603 20.7277 135.442 23.6143 131.843 23.5577C128.229 23.6143 125.116 20.7277 125.193 17.1497C125.116 13.6081 128.229 10.6689 131.843 10.7417ZM131.86 13.7011C129.874 13.7011 128.488 15.108 128.488 17.1497C128.488 18.1806 128.807 19.0216 129.426 19.6603C130.044 20.2789 130.869 20.5983 131.86 20.5983C133.772 20.5983 135.231 19.2116 135.231 17.1497C135.235 15.108 133.772 13.7011 131.86 13.7011Z" fill="#46A358"/>
<path d="M140.374 10.9688H145.226C147.979 10.9688 150.004 12.6546 150.004 15.2219C150.004 17.7527 147.926 19.4912 145.226 19.4912H143.596V23.332H140.374V10.9688ZM145.242 16.6814C146.139 16.6814 146.721 16.0992 146.721 15.2219C146.721 14.3446 146.139 13.7786 145.242 13.7786H143.592V16.6814H145.242Z" fill="#46A358"/>
</svg>
